<svg id="レイヤー_2" data-name="レイヤー 2" xmlns="http://www.w3.org/2000/svg" width="219" height="40.702" viewBox="0 0 219 40.702">
  <g id="レイヤー_3" data-name="レイヤー 3">
    <path id="パス_2" data-name="パス 2" d="M67.55,74.424l6.07-6.074V81.791H67.55Z" transform="translate(-40.608 -41.089)" fill="#a51f24"/>
    <path id="パス_3" data-name="パス 3" d="M69.406,47.519h4.523V11.34L51.51,33.759l3.2,3.195,14.7-14.7Z" transform="translate(-30.966 -6.817)" fill="#a51f24"/>
    <path id="パス_4" data-name="パス 4" d="M54.341,4.21,35.48,23.075l3.195,3.2L54.341,10.607Z" transform="translate(-21.329 -2.531)" fill="#a51f24"/>
    <path id="パス_5" data-name="パス 5" d="M10.952,17.346l3.179-3.215L0,0V40.7H5.428V11.822Z" fill="#a51f24"/>
    <path id="パス_6" data-name="パス 6" d="M140.424,91.131v2.018h-.969V91.131L137.6,87.9h1.093l1.077,2.054.172.359.168-.359,1.077-2.054h1.089Z" transform="translate(-82.719 -52.842)" fill="#691418"/>
    <path id="パス_7" data-name="パス 7" d="M153.544,93.064a2.8,2.8,0,1,1,2.628-2.792A2.568,2.568,0,0,1,153.544,93.064Zm0-4.71c-.9,0-1.6.674-1.6,1.918s.7,1.922,1.6,1.922,1.6-.734,1.6-1.922-.658-1.918-1.6-1.918Z" transform="translate(-90.727 -52.589)" fill="#691418"/>
    <path id="パス_8" data-name="パス 8" d="M168.966,93.292a2,2,0,0,1-2.186-2.241V87.86h.969v3.29a1.2,1.2,0,1,0,2.393,0V87.876h.969v3.191A1.993,1.993,0,0,1,168.966,93.292Z" transform="translate(-100.261 -52.818)" fill="#691418"/>
    <path id="パス_9" data-name="パス 9" d="M184.039,93.145c-.108-.1-.171-.179-.171-.562v-.63c0-.375-.116-.861-.678-.861h-1.34v2.054h-.969V87.9h2.469a1.46,1.46,0,0,1,1.615,1.424,1.352,1.352,0,0,1-.323.9,1.26,1.26,0,0,1-.818.423c.51.072,1.005.223,1.005,1.2v.53c0,.522.2.662.339.762Zm-.818-4.407h-1.372v1.551h1.2a.77.77,0,0,0,.869-.822.658.658,0,0,0-.694-.73Z" transform="translate(-108.738 -52.842)" fill="#691418"/>
    <path id="パス_10" data-name="パス 10" d="M202.749,93.145H200.3V87.9h2.3c1.061,0,1.687.491,1.687,1.308a1.161,1.161,0,0,1-.3.8.973.973,0,0,1-.686.315,1.332,1.332,0,0,1,.873.411,1.233,1.233,0,0,1,.315.85,1.631,1.631,0,0,1-1.735,1.563Zm-.06-4.407h-1.42v1.276h1.264c.423,0,.8-.215.8-.666a.582.582,0,0,0-.642-.61Zm.08,2.074h-1.5v1.516h1.384a.774.774,0,0,0,.834-.8.7.7,0,0,0-.718-.734Z" transform="translate(-120.412 -52.842)" fill="#691418"/>
    <path id="パス_11" data-name="パス 11" d="M213.17,93.145V87.9h3.964v.838h-3v1.3H216.9v.754h-2.772v1.536h3.115v.822Z" transform="translate(-128.149 -52.842)" fill="#691418"/>
    <path id="パス_12" data-name="パス 12" d="M227.6,93.053c-.9,0-2.174-.243-2.253-1.747h.969c.044.842.8.933,1.2.933.243,0,1.284-.028,1.284-.766,0-.4-.231-.526-.706-.634l-1.26-.279a1.54,1.54,0,0,1-1.408-1.528c0-1.129,1.081-1.567,2.11-1.567a2.345,2.345,0,0,1,1.6.518,1.639,1.639,0,0,1,.519,1.133h-.969c-.036-.8-.877-.834-1.145-.834-.171,0-1.149,0-1.149.7,0,.3.179.538.742.662l1.364.3a1.493,1.493,0,0,1,1.312,1.424C229.781,92.327,228.979,93.053,227.6,93.053Z" transform="translate(-135.471 -52.579)" fill="#691418"/>
    <path id="パス_13" data-name="パス 13" d="M240.72,88.738v4.423h-.969V88.738H237.88V87.9h4.706v.838Z" transform="translate(-143.004 -52.842)" fill="#691418"/>
    <path id="パス_14" data-name="パス 14" d="M259.339,88.738v1.356h2.493v.8h-2.493v2.249h-.969V87.9h3.717v.838Z" transform="translate(-155.321 -52.842)" fill="#691418"/>
    <path id="パス_15" data-name="パス 15" d="M273.354,93.145l-.4-1.129h-2.174l-.4,1.129H269.31L271.3,87.9h1.1l1.994,5.245Zm-1.376-3.957-.112-.451-.124.463-.694,2.018h1.635Z" transform="translate(-161.898 -52.842)" fill="#691418"/>
    <path id="パス_16" data-name="パス 16" d="M286.395,93.058a2.467,2.467,0,0,1-2.5-2.744c0-1.436.71-2.844,2.581-2.844a2.061,2.061,0,0,1,2.225,1.823h-1.029a1.133,1.133,0,0,0-1.177-.969c-.818,0-1.571.662-1.571,1.994,0,1.224.658,1.91,1.464,1.91a1.36,1.36,0,0,0,.953-.4,1.013,1.013,0,0,0,.331-.7H288.7A2.162,2.162,0,0,1,286.395,93.058Z" transform="translate(-170.663 -52.583)" fill="#691418"/>
    <path id="パス_17" data-name="パス 17" d="M298.4,93.145V87.9h.969v5.245Z" transform="translate(-179.386 -52.842)" fill="#691418"/>
    <path id="パス_18" data-name="パス 18" d="M303.76,93.145V87.9h.969v4.427h2.912v.822Z" transform="translate(-182.608 -52.842)" fill="#691418"/>
    <path id="パス_19" data-name="パス 19" d="M315.48,93.145V87.9h.969v5.245Z" transform="translate(-189.653 -52.842)" fill="#691418"/>
    <path id="パス_20" data-name="パス 20" d="M322.726,88.738v4.423h-.969V88.738H319.89V87.9h4.7v.838Z" transform="translate(-192.305 -52.842)" fill="#691418"/>
    <path id="パス_21" data-name="パス 21" d="M333.55,93.145V87.9h.977v5.245Z" transform="translate(-200.516 -52.842)" fill="#691418"/>
    <path id="パス_22" data-name="パス 22" d="M339,93.145V87.9h3.965v.838h-3v1.3h2.772v.754h-2.772v1.536h3.115v.822Z" transform="translate(-203.793 -52.842)" fill="#691418"/>
    <path id="パス_23" data-name="パス 23" d="M353.357,93.053c-.9,0-2.178-.243-2.257-1.747h.969c.044.842.8.933,1.2.933.243,0,1.284-.028,1.284-.766,0-.4-.227-.526-.7-.634l-1.264-.279a1.543,1.543,0,0,1-1.408-1.528c0-1.129,1.085-1.567,2.11-1.567a2.357,2.357,0,0,1,1.6.518,1.635,1.635,0,0,1,.515,1.133h-.969c-.036-.8-.877-.834-1.141-.834-.171,0-1.149,0-1.149.7,0,.3.179.538.738.662l1.364.3a1.5,1.5,0,0,1,1.316,1.424C355.547,92.328,354.741,93.053,353.357,93.053Z" transform="translate(-211.067 -52.579)" fill="#691418"/>
    <path id="パス_24" data-name="パス 24" d="M375.568,93.145v-4.6l-1.157,4.6h-1.049l-1.157-4.6v4.6H371.3V87.9h1.524l.925,3.629.12.834.124-.834.933-3.621h1.516v5.245Z" transform="translate(-223.21 -52.842)" fill="#691418"/>
    <path id="パス_25" data-name="パス 25" d="M390.542,93.145l-.4-1.129h-2.206l-.4,1.129H386.47l1.994-5.245h1.1l2.014,5.245Zm-1.372-3.957-.1-.451-.12.463-.7,2.018h1.615Z" transform="translate(-232.33 -52.842)" fill="#691418"/>
    <path id="パス_26" data-name="パス 26" d="M401.43,93.145V87.9h.969v5.245Z" transform="translate(-241.323 -52.842)" fill="#691418"/>
    <path id="パス_27" data-name="パス 27" d="M410.212,93.145l-2.07-3.338-.4-.865.1,1.173v3.031h-.933V87.9h1.033l2.07,3.342.4.861-.1-1.173V87.9h.933v5.245Z" transform="translate(-244.617 -52.842)" fill="#691418"/>
    <path id="パス_28" data-name="パス 28" d="M422.832,88.738v4.423h-.969V88.738H420V87.9h4.7v.838Z" transform="translate(-252.486 -52.842)" fill="#691418"/>
    <path id="パス_29" data-name="パス 29" d="M437.052,93.145l-.4-1.129h-2.206l-.4,1.129H433l2.014-5.245h1.1l1.994,5.245Zm-1.372-3.957-.116-.451-.12.463-.7,2.018h1.635Z" transform="translate(-260.302 -52.842)" fill="#691418"/>
    <path id="パス_30" data-name="パス 30" d="M447.91,93.145V87.9h.969v5.245Z" transform="translate(-269.265 -52.842)" fill="#691418"/>
    <path id="パス_31" data-name="パス 31" d="M456.694,93.145l-2.066-3.338-.4-.865.1,1.173v3.031H453.4V87.9h1.037l2.07,3.342.4.861-.1-1.173V87.9h.937v5.245Z" transform="translate(-272.565 -52.842)" fill="#691418"/>
    <path id="パス_32" data-name="パス 32" d="M467.51,93.145V87.9h3.964v.838h-3v1.3h2.772v.754h-2.772v1.536h3.119v.822Z" transform="translate(-281.048 -52.842)" fill="#691418"/>
    <path id="パス_33" data-name="パス 33" d="M483.523,93.145c-.112-.1-.175-.179-.175-.562v-.63c0-.375-.112-.861-.674-.861h-1.344v2.054h-.969V87.9h2.473a1.462,1.462,0,0,1,1.615,1.424,1.352,1.352,0,0,1-.323.9,1.272,1.272,0,0,1-.822.423c.51.072,1.009.223,1.009,1.2v.53c0,.522.191.662.335.762Zm-.822-4.407h-1.372v1.551h1.2a.766.766,0,0,0,.881-.838.658.658,0,0,0-.706-.714Z" transform="translate(-288.772 -52.842)" fill="#691418"/>
    <path id="パス_34" data-name="パス 34" d="M149.929,45.454V31.643l-7.263,7h-.287l-7.207-7V45.454H132.3V25.64h.4l9.819,9.245,9.819-9.245h.431V45.454Z" transform="translate(-79.533 -15.414)" fill="#691418"/>
    <path id="パス_35" data-name="パス 35" d="M205.019,25.64H198.43V32Z" transform="translate(-119.288 -15.414)" fill="#a51f24"/>
    <path id="パス_36" data-name="パス 36" d="M207.484,36.9l7.889-7.618,1.6,1.651-7.889,7.618,4.946,5.121,7.546-7.287V25.64h-9.708l-7.893,7.618Z" transform="translate(-122.618 -15.414)" fill="#a51f24"/>
    <path id="パス_37" data-name="パス 37" d="M233.36,66.76h5.879V61.08Z" transform="translate(-140.286 -36.719)" fill="#a51f24"/>
    <path id="パス_38" data-name="パス 38" d="M198.43,49.37V59.72h9.995Z" transform="translate(-119.288 -29.679)" fill="#a51f24"/>
    <path id="パス_39" data-name="パス 39" d="M279.25,45.913H278.9L265.742,32.353V45.474H262.87V25.64h.4l13.122,13.64V26.1h2.844Z" transform="translate(-158.027 -15.414)" fill="#691418"/>
    <path id="パス_40" data-name="パス 40" d="M331.855,29.231V46.146h-2.872V29.231H322V26.79h16.855v2.441Z" transform="translate(-193.573 -16.105)" fill="#691418"/>
    <path id="パス_41" data-name="パス 41" d="M387.14,46.146V26.79h13.84v2.441H390.012v5.053H400.98v2.3H390.012V43.7H400.98v2.441Z" transform="translate(-232.732 -16.105)" fill="#691418"/>
    <path id="パス_42" data-name="パス 42" d="M459.866,45.913h-.343L446.362,32.353V45.474H443.49V25.64h.4l13.122,13.64V26.1h2.84Z" transform="translate(-266.608 -15.414)" fill="#691418"/>
    <path id="パス_43" data-name="パス 43" d="M517.851,45.671l-1.779-4.539h-8.958l-1.743,4.539H502.3L510.3,26h2.648l8.013,19.671ZM511.593,29.59l-3.617,9.273h7.235Z" transform="translate(-301.962 -15.63)" fill="#691418"/>
  </g>
</svg>
